<?xml version="1.0" standalone="no"?>
<!DOCTYPE svg PUBLIC "-//W3C//DTD SVG 1.1//EN" "http://www.w3.org/Graphics/SVG/1.1/DTD/svg11.dtd" >
<svg >
<metadata></metadata>
<defs>
<font id="simplon_bpmedium" horiz-adv-x="598" >
<font-face units-per-em="2048" ascent="1671" descent="-377" />
<missing-glyph horiz-adv-x="448" />
<glyph unicode="&#xfb01;" horiz-adv-x="1183" d="M45 854v203h150v125q0 127 60.5 189.5t190.5 62.5h224v-207h-162q-61 0 -79.5 -20.5t-18.5 -80.5v-69h260v-203h-260v-854h-215v854h-150zM827 0v1057h215v-1057h-215zM827 1214v220h215v-220h-215z" />
<glyph unicode="&#xfb02;" horiz-adv-x="1243" d="M45 854v203h150v125q0 127 60.5 189.5t190.5 62.5h224v-207h-162q-61 0 -79.5 -20.5t-18.5 -80.5v-69h260v-203h-260v-854h-215v854h-150zM823 252q0 -126 61 -189t191 -63h94v207h-32q-62 0 -80.5 20t-18.5 80v1127h-215v-1182z" />
<glyph unicode="&#xfb03;" horiz-adv-x="1869" d="M45 854v203h150v125q0 127 60.5 189.5t190.5 62.5h224v-207h-162q-61 0 -79.5 -20.5t-18.5 -80.5v-69h260v-203h-260v-854h-215v854h-150zM731 854v203h150v125q0 126 61 189t191 63h223v-207h-162q-61 0 -79.5 -20.5t-18.5 -80.5v-69h260v-203h-260v-854h-215v854h-150z M1513 0v1057h216v-1057h-216zM1513 1214v220h216v-220h-216z" />
<glyph unicode="&#xfb04;" horiz-adv-x="1929" d="M45 854v203h150v125q0 127 60.5 189.5t190.5 62.5h224v-207h-162q-61 0 -79.5 -20.5t-18.5 -80.5v-69h260v-203h-260v-854h-215v854h-150zM731 854v203h150v125q0 126 61 189t191 63h223v-207h-162q-61 0 -79.5 -20.5t-18.5 -80.5v-69h260v-203h-260v-854h-215v854h-150z M1509 252q0 -126 61 -189t191 -63h94v207h-32q-62 0 -80.5 20t-18.5 80v1127h-215v-1182z" />
<glyph horiz-adv-x="0" />
<glyph horiz-adv-x="682" />
<glyph unicode=" "  horiz-adv-x="448" />
<glyph unicode="&#x09;" horiz-adv-x="448" />
<glyph unicode="&#xa0;" horiz-adv-x="448" />
<glyph unicode="!" d="M162 0v274h274v-274h-274zM190 430v1004h216v-1004h-216z" />
<glyph unicode="&#x22;" horiz-adv-x="948" d="M152 975v459h215v-459h-215zM582 975v459h215v-459h-215z" />
<glyph unicode="#" horiz-adv-x="1433" d="M137 395v187h180l68 270h-182v186h229l98 396h205l-98 -396h319l99 396h205l-99 -396h135v-186h-182l-67 -270h184v-187h-230l-98 -395h-205l99 395h-320l-98 -395h-205l98 395h-135zM522 582h320l67 270h-319z" />
<glyph unicode="$" horiz-adv-x="1058" d="M72 444h215q6 -108 59 -175.5t143 -80.5v437l-100 39q-295 115 -295 397q0 176 108.5 278t286.5 113v186h89v-186q164 -13 263 -121.5t111 -279.5h-215q-11 77 -51.5 128t-107.5 64v-418l106 -41q157 -61 224 -161.5t67 -249.5q0 -171 -101 -276t-296 -115v-187h-89v187 q-190 13 -300.5 140.5t-116.5 321.5zM309 1061q0 -77 43 -121t121 -74l16 -6v385q-88 -10 -134 -59.5t-46 -124.5zM578 188q88 9 135 58.5t47 126.5q0 70 -39.5 124t-136.5 91l-6 2v-402z" />
<glyph unicode="%" horiz-adv-x="1794" d="M127 887v262q0 61 15 112t46.5 94t88 67t133.5 24t133.5 -24t88 -67t46 -94t14.5 -112v-262q0 -61 -14.5 -112t-46 -94t-88 -67t-133.5 -24t-133.5 24t-88 67t-46.5 94t-15 112zM301 854q0 -48 28 -79.5t81 -31.5t80.5 31t27.5 80v328q0 48 -27.5 79t-80.5 31t-81 -31 t-28 -79v-328zM307 0l985 1434h195l-985 -1434h-195zM1100 285v262q0 61 14.5 112t46 94t88 67t133.5 24t133.5 -24t88 -67t46.5 -94t15 -112v-262q0 -61 -15 -112t-46.5 -94t-88 -67t-133.5 -24t-133.5 24t-88 67t-46 94t-14.5 112zM1274 252q0 -49 27.5 -80t80.5 -31 t81 31.5t28 79.5v328q0 48 -28 79t-81 31t-80.5 -31t-27.5 -79v-328z" />
<glyph unicode="&#x26;" horiz-adv-x="1234" d="M98 410q0 101 46 183.5t124 123.5q-76 40 -123 122.5t-47 182.5q0 92 28.5 165t73.5 118t104.5 75t117.5 42t117 12h225v-207h-225q-102 0 -164 -54.5t-62 -150.5q0 -94 60.5 -148.5t165.5 -54.5h225v164h215v-164h252v-207h-252v-612h-449q-61 0 -120 13t-116 44 t-100 76.5t-69.5 117t-26.5 159.5zM313 410q0 -96 58 -149.5t159 -53.5h234v405h-234q-101 0 -159 -53t-58 -149z" />
<glyph unicode="'" horiz-adv-x="518" d="M152 975v459h215v-459h-215z" />
<glyph unicode="(" d="M184 -43q0 -126 61 -189t191 -63h94v193h-49q-60 0 -81 22.5t-21 81.5v1135q0 59 21 81.5t81 22.5h49v193h-94q-130 0 -191 -63t-61 -189v-1225z" />
<glyph unicode=")" d="M68 -102h49q60 0 81 22.5t21 81.5v1135q0 59 -21 81.5t-81 22.5h-49v193h94q130 0 191 -63t61 -189v-1225q0 -126 -61 -189t-191 -63h-94v193z" />
<glyph unicode="*" horiz-adv-x="1034" d="M125 1081l242 -77l-150 -207l150 -109l151 205l150 -205l149 109l-149 207l241 77l-57 176l-242 -77v254h-186v-254l-242 77z" />
<glyph unicode="+" horiz-adv-x="1142" d="M131 481v187h348v346h187v-346h346v-187h-346v-348h-187v348h-348z" />
<glyph unicode="," d="M162 0v274h274v-274l-80 -213h-161l79 213h-112z" />
<glyph unicode="-" horiz-adv-x="794" d="M100 481v187h594v-187h-594z" />
<glyph unicode="." d="M162 0v274h274v-274h-274z" />
<glyph unicode="/" horiz-adv-x="747" d="M-23 0l580 1434h213l-580 -1434h-213z" />
<glyph unicode="0" horiz-adv-x="1118" d="M119 418v598q0 100 28.5 178.5t73 126.5t104.5 79t117 42.5t117 11.5t117 -11.5t117 -42.5t104.5 -79t73 -126.5t28.5 -178.5v-598q0 -100 -28.5 -178.5t-73 -126.5t-104.5 -79t-117 -42.5t-117 -11.5t-117 11.5t-117 42.5t-104.5 79t-73 126.5t-28.5 178.5zM334 422 q0 -116 61 -176t164 -60t164 60t61 176v590q0 116 -60.5 175.5t-164.5 59.5t-164.5 -59.5t-60.5 -175.5v-590z" />
<glyph unicode="1" horiz-adv-x="735" d="M84 930v268l274 236h215v-1434h-215v1165z" />
<glyph unicode="2" horiz-adv-x="1062" d="M86 0v207l514 532q78 81 115 147.5t37 141.5q0 107 -61.5 163t-164.5 56q-104 0 -164.5 -59.5t-60.5 -175.5v-19h-215v23q0 100 28.5 178.5t73 126.5t104.5 79t117 42.5t117 11.5t117 -11.5t117 -41.5t105 -76t73.5 -121.5t28.5 -171.5q0 -124 -48 -220t-157 -208 l-383 -397h588v-207h-881z" />
<glyph unicode="3" horiz-adv-x="1075" d="M84 408q1 -98 30.5 -174.5t75.5 -123.5t107.5 -77t120.5 -41.5t121 -11.5q64 0 123.5 13.5t115 45t96.5 78.5t66 118.5t25 159.5q0 103 -46.5 192t-123.5 130q76 40 123 123.5t47 183.5q0 92 -28.5 167t-73.5 122.5t-104.5 80.5t-118 46.5t-116.5 13.5q-59 0 -115.5 -12 t-116 -42.5t-104 -77t-73.5 -123t-31 -173.5v-2h215v2q3 109 64 165t161 56t163 -62.5t63 -160.5q0 -95 -60.5 -152t-165.5 -57h-118v-199h118q98 0 162 -60.5t64 -160.5q0 -102 -59 -155.5t-159 -53.5q-101 0 -165.5 57t-67.5 165v2h-215v-2z" />
<glyph unicode="4" horiz-adv-x="1064" d="M18 354v199l637 881h215v-881h150v-199h-150v-354h-215v354h-637zM268 553h387v534z" />
<glyph unicode="5" horiz-adv-x="1077" d="M119 408v2h215v-2q3 -108 67.5 -165t165.5 -57q100 0 158.5 53.5t58.5 155.5v86q0 116 -61 176t-164 60q-75 0 -129 -32.5t-78 -94.5h-215v844h807v-207h-592v-377q34 32 99.5 53t130.5 21q55 0 108.5 -12t110.5 -43t100 -78.5t70.5 -126.5t27.5 -179v-90 q0 -88 -25 -159.5t-66 -118.5t-96.5 -78.5t-115 -45t-123.5 -13.5q-62 0 -121 11.5t-120 41.5t-106.5 77t-75 123.5t-31.5 174.5z" />
<glyph unicode="6" horiz-adv-x="1105" d="M119 418v598q0 100 28.5 178.5t73 126.5t104.5 79t117 42.5t117 11.5q59 0 115.5 -11.5t116.5 -42t104.5 -76.5t73.5 -123t30 -175v-2h-215v2q-3 109 -64 165t-161 56q-104 0 -164.5 -59.5t-60.5 -175.5v-176q39 33 104 53t135 20q54 0 108 -11.5t112.5 -43t103 -78.5 t73.5 -126t29 -179v-53q0 -100 -28.5 -178.5t-73 -126.5t-104.5 -79t-117 -42.5t-117 -11.5t-117 11.5t-117 42.5t-104.5 79t-73 126.5t-28.5 178.5zM334 422q0 -116 61 -176t164 -60t164 60t61 176v45q0 116 -60.5 175.5t-164.5 59.5t-164.5 -59.5t-60.5 -175.5v-45z" />
<glyph unicode="7" horiz-adv-x="929" d="M25 1227v207h868v-207l-442 -1227h-228l443 1227h-641z" />
<glyph unicode="8" horiz-adv-x="1101" d="M111 401q0 -92 28.5 -166t73.5 -120.5t104.5 -78t117.5 -44t116 -12.5t116 12.5t117.5 44t104.5 78t73.5 120.5t28.5 166q0 200 -151 320q71 62 104 137t33 178q0 91 -27 164.5t-70 120t-100.5 77.5t-114 43.5t-114.5 12.5t-114.5 -12.5t-114 -43.5t-100.5 -77.5 t-70 -120t-27 -164.5q0 -103 33 -178t104 -137q-151 -120 -151 -320zM326 408q0 102 63 160.5t162 58.5t162 -59t63 -160q0 -107 -62 -163.5t-163 -56.5t-163 56t-62 164zM340 1032q0 100 57.5 157.5t149.5 57.5q94 0 154.5 -57.5t60.5 -157.5t-60.5 -157.5t-154.5 -57.5 q-92 0 -149.5 57.5t-57.5 157.5z" />
<glyph unicode="9" horiz-adv-x="1105" d="M106 408v2h216v-2q3 -109 64 -165.5t161 -56.5q103 0 164 60t61 176v176q-39 -33 -104.5 -53.5t-135.5 -20.5q-54 0 -108 11.5t-112.5 43t-103 79t-73.5 126.5t-29 179v53q0 100 28.5 178.5t73.5 126.5t105 79t117 42.5t117 11.5t117 -11.5t117 -42.5t104.5 -79 t73 -126.5t28.5 -178.5v-598q0 -100 -28.5 -178.5t-73 -126.5t-104.5 -79t-117 -42.5t-117 -11.5q-59 0 -115.5 11.5t-116.5 42t-105 76.5t-74 123t-30 175zM322 967q0 -116 61 -176t164 -60t164 60t61 176v45q0 116 -60.5 175.5t-164.5 59.5t-164.5 -59.5t-60.5 -175.5v-45 z" />
<glyph unicode=":" d="M162 0v274h274v-274h-274zM162 782v275h274v-275h-274z" />
<glyph unicode=";" d="M162 0v274h274v-274l-80 -213h-161l79 213h-112zM162 782v275h274v-275h-274z" />
<glyph unicode="&#x3c;" horiz-adv-x="1142" d="M131 420v221l881 430v-209l-680 -332l680 -331v-209z" />
<glyph unicode="=" horiz-adv-x="1142" d="M131 244h881v186h-881v-186zM131 696h881v187h-881v-187z" />
<glyph unicode="&#x3e;" horiz-adv-x="1142" d="M131 -10l881 430v221l-881 430v-209l680 -332l-680 -331v-209z" />
<glyph unicode="?" horiz-adv-x="1056" d="M74 1024v2q1 82 21 149t54.5 112.5t77.5 79t93.5 52t98 27t95.5 8.5q60 0 117 -11.5t117 -42.5t104.5 -79t73 -126.5t28.5 -178.5q0 -192 -172 -350l-106 -99q-38 -35 -51 -56.5t-13 -55.5v-25h-215v45q0 71 25 118t100 114l107 98q110 102 110 207q0 116 -60.5 175.5 t-164.5 59.5q-100 0 -161 -56t-64 -165v-2h-215zM369 0v274h274v-274h-274z" />
<glyph unicode="@" horiz-adv-x="1875" d="M131 412v233q0 133 27 246t73 195t110.5 146.5t135.5 105.5t152.5 67.5t156.5 37.5t152 11t152 -11t156.5 -37.5t152.5 -67.5t135.5 -105.5t110.5 -146.5t73 -195t27 -246v-387q0 -126 -70 -202t-207 -76q-207 0 -305 120q-100 -120 -315 -120q-74 0 -138 19t-114.5 56 t-79.5 98t-29 140q0 66 19.5 124.5t73.5 112.5t137 80q86 27 184.5 39t259.5 23q-7 102 -66.5 154.5t-156.5 52.5q-81 0 -137.5 -38t-77.5 -112h-219q13 100 58.5 173t110 111t130 55t135.5 17q60 0 117 -11.5t117 -42.5t104.5 -79t73 -126.5t28.5 -178.5v-383q0 -44 25 -68 t61 -24t61 24t25 68v387q0 140 -39.5 250t-101 176t-145 109.5t-163 59.5t-163.5 16t-163.5 -16t-163 -59.5t-145 -109.5t-101 -176t-39.5 -250v-245q0 -140 39.5 -250t101 -176t145 -109.5t163 -59.5t163.5 -16q229 0 389 113l103 -170q-205 -135 -492 -135q-77 0 -152 11 t-156.5 37.5t-152.5 67.5t-135.5 105.5t-110.5 146.5t-73 195t-27 246zM702 311q0 -125 181 -125q41 0 77 5.5t74.5 21t66 41t45 68.5t17.5 100v59q-168 -11 -262 -25t-147 -46q-52 -31 -52 -99z" />
<glyph unicode="A" horiz-adv-x="1261" d="M16 0l502 1434h225l502 -1434h-225l-121 346h-537l-120 -346h-226zM432 549h397l-198 569z" />
<glyph unicode="B" horiz-adv-x="1263" d="M152 0v1434h553q210 0 325 -110.5t115 -299.5q0 -91 -36 -166.5t-105 -124.5q89 -54 132.5 -137t43.5 -182q0 -193 -114.5 -303.5t-326.5 -110.5h-587zM371 217h368q103 0 160 51t57 148t-57 147.5t-160 50.5h-368v-397zM371 831h334q101 0 159 50t58 143t-58 143 t-159 50h-334v-386z" />
<glyph unicode="C" horiz-adv-x="1222" d="M109 485v463q0 231 141.5 368.5t372.5 137.5q221 0 360.5 -125.5t151.5 -339.5h-220q-13 121 -97.5 184.5t-194.5 63.5q-55 0 -106.5 -17.5t-94.5 -51t-68.5 -91t-25.5 -129.5v-463q0 -72 25.5 -129t68.5 -91t94 -51t107 -17q110 0 194.5 63t97.5 184h220 q-13 -213 -152.5 -338.5t-359.5 -125.5q-232 0 -373 137.5t-141 367.5z" />
<glyph unicode="D" horiz-adv-x="1288" d="M152 0v1434h514q231 0 372.5 -137.5t141.5 -368.5v-422q0 -231 -141.5 -368.5t-372.5 -137.5h-514zM371 217h295q75 0 140 30t110 98.5t45 164.5v414q0 96 -45 164.5t-110 98.5t-140 30h-295v-1000z" />
<glyph unicode="E" horiz-adv-x="1116" d="M152 0v1434h845v-217h-626v-386h626v-217h-626v-397h626v-217h-845z" />
<glyph unicode="F" horiz-adv-x="1095" d="M152 0v1434h845v-217h-626v-386h626v-217h-626v-614h-219z" />
<glyph unicode="G" horiz-adv-x="1236" d="M109 485v463q0 231 141.5 368.5t372.5 137.5q219 0 358 -124t154 -335h-220q-16 118 -100 180t-192 62q-55 0 -106.5 -17.5t-94.5 -51t-68.5 -91t-25.5 -129.5v-463q0 -72 25.5 -129t68.5 -91t94 -51t107 -17t107 17t94 51t68.5 91t25.5 129v93h-295v210h514v-303 q0 -230 -141 -367.5t-373 -137.5t-373 137.5t-141 367.5z" />
<glyph unicode="H" horiz-adv-x="1331" d="M152 0v1434h219v-603h590v603h219v-1434h-219v614h-590v-614h-219z" />
<glyph unicode="I" horiz-adv-x="522" d="M152 0v1434h219v-1434h-219z" />
<glyph unicode="J" horiz-adv-x="972" d="M16 410h220q3 -98 51.5 -155.5t140.5 -57.5q95 0 144 60.5t49 162.5v1014h219v-1014q0 -216 -108.5 -328t-303.5 -112q-194 0 -301.5 109t-110.5 321z" />
<glyph unicode="K" horiz-adv-x="1292" d="M152 0v1434h219v-701l596 701h270l-502 -590l557 -844h-258l-444 674l-219 -258v-416h-219z" />
<glyph unicode="L" horiz-adv-x="1015" d="M152 0v1434h219v-1217h626v-217h-845z" />
<glyph unicode="M" horiz-adv-x="1507" d="M152 0v1434h219l383 -793l383 793h219v-1434h-217v995l-295 -610h-180l-295 610v-995h-217z" />
<glyph unicode="N" horiz-adv-x="1331" d="M152 0v1434h219l590 -1028v1028h219v-1434h-219l-590 1028v-1028h-219z" />
<glyph unicode="O" horiz-adv-x="1245" d="M109 485v463q0 231 141.5 368.5t372.5 137.5t372.5 -137.5t141.5 -368.5v-463q0 -230 -141 -367.5t-373 -137.5t-373 137.5t-141 367.5zM328 485q0 -72 25.5 -129t68.5 -91t94 -51t107 -17t107 17t94 51t68.5 91t25.5 129v463q0 72 -25.5 129.5t-68.5 91t-94.5 51 t-106.5 17.5t-106.5 -17.5t-94.5 -51t-68.5 -91t-25.5 -129.5v-463z" />
<glyph unicode="P" horiz-adv-x="1226" d="M152 0v1434h544q121 0 215 -37t152 -102.5t87.5 -149t29.5 -180.5t-29.5 -180.5t-87.5 -149t-152 -102.5t-215 -37h-325v-496h-219zM371 713h325q131 0 195.5 71.5t64.5 182.5t-64.5 182.5t-195.5 71.5h-325v-508z" />
<glyph unicode="Q" horiz-adv-x="1267" d="M109 485v463q0 231 141.5 368.5t372.5 137.5t372.5 -137.5t141.5 -368.5v-463q0 -175 -86 -303l127 -129l-150 -145l-133 135q-117 -63 -272 -63q-232 0 -373 137.5t-141 367.5zM328 485q0 -72 25.5 -129t68.5 -91t94 -51t107 -17q52 0 108 16l-131 133l150 146l139 -142 q29 60 29 135v463q0 72 -25.5 129.5t-68.5 91t-94.5 51t-106.5 17.5t-106.5 -17.5t-94.5 -51t-68.5 -91t-25.5 -129.5v-463z" />
<glyph unicode="R" horiz-adv-x="1249" d="M152 0h219v616h223l362 -616h246l-368 627q155 29 238 133t83 264q0 189 -115 299.5t-325 110.5h-563v-1434zM371 827v390h344q101 0 159 -51t58 -144t-58 -144t-159 -51h-344z" />
<glyph unicode="S" horiz-adv-x="1136" d="M61 444h224q23 -120 103 -183.5t206 -63.5q110 0 176 49.5t66 132.5q0 80 -48.5 130.5t-154.5 76.5l-254 61q-140 34 -217.5 140.5t-77.5 261.5q0 101 36.5 179.5t100 127t146.5 73.5t180 25q211 0 336.5 -108.5t152.5 -294.5h-223q-22 88 -91 137t-173 49 q-122 0 -182 -51t-60 -137q0 -151 162 -191l246 -59q344 -83 344 -424q0 -177 -124.5 -286t-344.5 -109q-239 0 -375 128t-154 336z" />
<glyph unicode="T" horiz-adv-x="1058" d="M16 1217v217h1026v-217h-403v-1217h-219v1217h-404z" />
<glyph unicode="U" horiz-adv-x="1294" d="M133 485v949h219v-949q0 -72 25.5 -129t68.5 -91t94 -51t107 -17t107 17t94 51t68.5 91t25.5 129v949h219v-949q0 -230 -141 -367.5t-373 -137.5t-373 137.5t-141 367.5z" />
<glyph unicode="V" horiz-adv-x="1261" d="M16 1434l502 -1434h225l502 1434h-225l-389 -1119l-389 1119h-226z" />
<glyph unicode="W" horiz-adv-x="1523" d="M43 1434l264 -1434h207l248 903l248 -903h207l264 1434h-215l-183 -1004l-219 799h-205l-219 -799l-182 1004h-215z" />
<glyph unicode="X" horiz-adv-x="1253" d="M25 0h245l357 586l356 -586h246l-455 741l424 693h-246l-325 -535l-326 535h-246l424 -693z" />
<glyph unicode="Y" horiz-adv-x="1216" d="M-6 1434l504 -887v-547h219v547l506 887h-242l-373 -660l-372 660h-242z" />
<glyph unicode="Z" horiz-adv-x="1198" d="M68 0v217l761 1000h-751v217h1018v-217l-762 -1000h772v-217h-1038z" />
<glyph unicode="[" d="M184 -295h346v193h-151v1343h151v193h-346v-1729z" />
<glyph unicode="\" horiz-adv-x="747" d="M-23 1434l580 -1434h213l-580 1434h-213z" />
<glyph unicode="]" d="M68 -102h151v1343h-151v193h346v-1729h-346v193z" />
<glyph unicode="^" horiz-adv-x="1277" d="M121 614h219l299 590l299 -590h219l-416 820h-204z" />
<glyph unicode="_" horiz-adv-x="856" d="M-12 -96h880v-187h-880v187z" />
<glyph unicode="`" horiz-adv-x="632" d="M96 1434l242 -265h172l-137 265h-277z" />
<glyph unicode="a" horiz-adv-x="1112" d="M94 293q0 66 19.5 124.5t73.5 112.5t137 80q86 27 184.5 39t259.5 23v2q-7 100 -67 152.5t-156 52.5q-81 0 -137.5 -38t-77.5 -112h-219q13 100 58.5 173t110 111t130 55t135.5 17q60 0 117 -11.5t117 -42.5t104.5 -79t73 -126.5t28.5 -178.5v-647h-215v100 q-100 -120 -315 -120q-74 0 -138 19t-114.5 56t-79.5 98t-29 140zM309 311q0 -125 180 -125q41 0 77 5.5t74.5 21t66 41t45.5 68.5t18 100v59q-169 -11 -263 -25t-147 -46q-51 -30 -51 -99z" />
<glyph unicode="b" horiz-adv-x="1134" d="M141 0v1434h215v-469q24 48 95 84t151 36q57 0 113.5 -14t112.5 -47t98.5 -81.5t69 -125t26.5 -170.5v-229q0 -94 -26.5 -170.5t-69 -125t-98.5 -81.5t-112.5 -47t-113.5 -14q-80 0 -151 36t-95 84v-100h-215zM356 422q0 -116 61 -175t165 -59t164.5 59t60.5 175v221 q0 116 -60.5 175t-164.5 59t-165 -59t-61 -175v-221z" />
<glyph unicode="c" horiz-adv-x="1083" d="M113 418v229q0 100 28.5 178.5t73 126.5t104.5 79t117 42.5t117 11.5q56 0 110 -10t111 -37t101.5 -68.5t76 -109.5t39.5 -155h-219q-15 86 -72.5 130t-146.5 44q-103 0 -164 -60t-61 -176v-221q0 -116 61 -176t164 -60q89 0 147.5 44t73.5 130h217q-8 -87 -39.5 -155 t-76 -109.5t-101.5 -68.5t-111 -37t-110 -10q-60 0 -117 11.5t-117 42.5t-104.5 79t-73 126.5t-28.5 178.5z" />
<glyph unicode="d" horiz-adv-x="1134" d="M113 418q0 -94 26.5 -170.5t68.5 -125t98 -81.5t112.5 -47t113.5 -14q80 0 151 36t95 84v-100h215v1434h-215v-469q-24 48 -95 84t-151 36q-57 0 -113.5 -14t-112.5 -47t-98 -81.5t-68.5 -125t-26.5 -170.5v-229zM328 422v221q0 116 60.5 175t164.5 59t164.5 -59 t60.5 -175v-221q0 -115 -66.5 -174.5t-172.5 -59.5q-94 0 -152.5 59.5t-58.5 174.5z" />
<glyph unicode="e" horiz-adv-x="1095" d="M113 418v229q0 100 28.5 178.5t73 126.5t104.5 79t117 42.5t117 11.5t117 -11.5t117 -42.5t104.5 -79t73 -126.5t28.5 -178.5v-190h-665v-35q0 -116 61 -176t164 -60q81 0 137.5 38t77.5 112h219q-13 -100 -58.5 -173t-110 -111t-130 -55t-135.5 -17q-60 0 -117 11.5 t-117 42.5t-104.5 79t-73 126.5t-28.5 178.5zM328 647h450v2q-1 112 -62 171t-163 59q-103 0 -164 -59t-61 -171v-2z" />
<glyph unicode="f" horiz-adv-x="686" d="M45 854v203h150v125q0 127 60.5 189.5t190.5 62.5h224v-207h-162q-61 0 -79.5 -20.5t-18.5 -80.5v-69h260v-203h-260v-854h-215v854h-150z" />
<glyph unicode="g" horiz-adv-x="1130" d="M109 479v168q0 94 26.5 170.5t68.5 125t98 81.5t112.5 47t113.5 14q80 0 151 -36t95 -84v92h215v-1016q0 -100 -28.5 -178.5t-73 -126.5t-104.5 -79t-117 -42.5t-117 -11.5q-56 0 -109.5 10.5t-110.5 37t-100.5 68t-75.5 108.5t-40 153h217q17 -84 74.5 -127t144.5 -43 q104 0 164.5 59.5t60.5 175.5v117q-24 -48 -95 -84.5t-151 -36.5q-57 0 -113.5 14t-112.5 47t-98 81.5t-68.5 125t-26.5 170.5zM324 483q0 -116 60.5 -174.5t164.5 -58.5t164.5 58.5t60.5 174.5v160q0 116 -60.5 175t-164.5 59t-164.5 -59t-60.5 -175v-160z" />
<glyph unicode="h" horiz-adv-x="1148" d="M141 0v1434h215v-469q24 48 95 84t151 36q57 0 113.5 -14t112.5 -47t98.5 -81.5t69 -125t26.5 -170.5v-647h-215v643q0 116 -60.5 175t-164.5 59t-165 -59t-61 -175v-643h-215z" />
<glyph unicode="i" horiz-adv-x="497" d="M141 0v1057h215v-1057h-215zM141 1214v220h215v-220h-215z" />
<glyph unicode="j" horiz-adv-x="497" d="M10 -170h33q61 0 79.5 20t18.5 80v1127h215v-1182q0 -126 -61 -189t-191 -63h-94v207zM141 1214v220h215v-220h-215z" />
<glyph unicode="k" horiz-adv-x="1077" d="M141 0v1434h215v-807l396 430h260l-381 -414l438 -643h-250l-332 487l-131 -143v-344h-215z" />
<glyph unicode="l" horiz-adv-x="557" d="M137 252q0 -126 61 -189t191 -63h94v207h-32q-62 0 -80.5 20t-18.5 80v1127h-215v-1182z" />
<glyph unicode="m" horiz-adv-x="1773" d="M141 0v1057h215v-92q21 44 92 82t144 38q81 0 167.5 -38.5t135.5 -110.5q49 72 140 110.5t182 38.5q61 0 119.5 -14t115.5 -47t100 -81.5t69 -125t26 -170.5v-647h-215v643q0 115 -60 174.5t-155 59.5t-155.5 -59.5t-60.5 -174.5v-643h-215v643q0 115 -60 174.5 t-155 59.5t-155 -59.5t-60 -174.5v-643h-215z" />
<glyph unicode="n" horiz-adv-x="1148" d="M141 0v1057h215v-92q24 48 95 84t151 36q57 0 113.5 -14t112.5 -47t98.5 -81.5t69 -125t26.5 -170.5v-647h-215v643q0 116 -60.5 175t-164.5 59t-165 -59t-61 -175v-643h-215z" />
<glyph unicode="o" horiz-adv-x="1105" d="M113 418v229q0 100 28.5 178.5t73 126.5t104.5 79t117 42.5t117 11.5t117 -11.5t117 -42.5t104.5 -79t73 -126.5t28.5 -178.5v-229q0 -100 -28.5 -178.5t-73 -126.5t-104.5 -79t-117 -42.5t-117 -11.5t-117 11.5t-117 42.5t-104.5 79t-73 126.5t-28.5 178.5zM328 422 q0 -116 61 -176t164 -60t164 60t61 176v221q0 116 -61 176t-164 60t-164 -60t-61 -176v-221z" />
<glyph unicode="p" horiz-adv-x="1134" d="M141 -377v1434h215v-92q24 48 95 84t151 36q57 0 113.5 -14t112.5 -47t98.5 -81.5t69 -125t26.5 -170.5v-229q0 -94 -26.5 -170.5t-69 -125t-98.5 -81.5t-112.5 -47t-113.5 -14q-80 0 -151 36t-95 84v-477h-215zM356 422q0 -116 61 -175t165 -59t164.5 59t60.5 175v221 q0 116 -60.5 175t-164.5 59t-165 -59t-61 -175v-221z" />
<glyph unicode="q" horiz-adv-x="1134" d="M113 418q0 -94 26.5 -170.5t68.5 -125t98 -81.5t112.5 -47t113.5 -14q80 0 151 36t95 84v-477h215v1434h-215v-92q-24 48 -95 84t-151 36q-57 0 -113.5 -14t-112.5 -47t-98 -81.5t-68.5 -125t-26.5 -170.5v-229zM328 422v221q0 116 60.5 175t164.5 59t164.5 -59 t60.5 -175v-221q0 -115 -66.5 -174.5t-172.5 -59.5q-94 0 -152.5 59.5t-58.5 174.5z" />
<glyph unicode="r" horiz-adv-x="706" d="M141 0v1057h215v-103q24 48 95 84.5t151 36.5h82v-209h-102q-104 0 -165 -58.5t-61 -174.5v-633h-215z" />
<glyph unicode="s" horiz-adv-x="987" d="M68 338h221q11 -75 75.5 -113.5t155.5 -38.5q174 0 174 111q0 49 -34.5 72.5t-98.5 38.5l-201 51q-57 14 -101.5 36t-84 58t-61 92t-21.5 129q0 151 107 231t276 80q177 0 284.5 -83t121.5 -254h-226q-11 66 -63.5 98.5t-130.5 32.5q-60 0 -106 -26t-46 -83 q0 -42 32 -63.5t87 -34.5l195 -49q151 -38 219.5 -112t68.5 -220q-1 -152 -108 -231.5t-285 -79.5q-192 0 -316.5 91.5t-133.5 266.5z" />
<glyph unicode="t" horiz-adv-x="735" d="M41 854h149v-602q0 -126 61 -189t191 -63h224v207h-162q-61 0 -79.5 20t-18.5 80v547h260v203h-260v239h-216v-239h-149v-203z" />
<glyph unicode="u" horiz-adv-x="1136" d="M127 418v639h215v-635q0 -116 59.5 -175t159.5 -59t159.5 59t59.5 175v635h215v-1057h-215v100q-24 -48 -94.5 -84t-150.5 -36q-56 0 -112 15.5t-110 49.5t-95 84t-66 124.5t-25 164.5z" />
<glyph unicode="v" horiz-adv-x="974" d="M0 1057h223l264 -752l265 752h223l-381 -1057h-213z" />
<glyph unicode="w" horiz-adv-x="1409" d="M14 1057h219l177 -719l180 719h229l180 -719l177 719h219l-279 -1057h-217l-194 776l-195 -776h-217z" />
<glyph unicode="x" horiz-adv-x="1007" d="M18 0h238l248 379l248 -379h237l-358 543l342 514h-238l-231 -352l-232 352h-237l342 -514z" />
<glyph unicode="y" horiz-adv-x="974" d="M0 1057h223l264 -752l265 752h223l-469 -1301q-47 -133 -234 -133h-110v207h43q40 0 61 3t37 19t22 29.5t23 55.5l29 77z" />
<glyph unicode="z" horiz-adv-x="921" d="M68 0v203l505 651h-491v203h760v-203l-506 -651h520v-203h-788z" />
<glyph unicode="{" horiz-adv-x="663" d="M98 473v193h66q49 0 67.5 24.5t18.5 79.5v412q0 126 61 189t191 63h94v-193h-49q-60 0 -81.5 -23t-21.5 -81v-412q0 -122 -65 -156q65 -37 65 -155v-412q0 -58 21.5 -81t81.5 -23h49v-193h-94q-130 0 -191 63t-61 189v412q0 55 -18.5 79.5t-67.5 24.5h-66z" />
<glyph unicode="|" horiz-adv-x="497" d="M152 -205v1639h194v-1639h-194z" />
<glyph unicode="}" horiz-adv-x="663" d="M68 -102v-193h94q130 0 191 63t61 189v412q0 55 18.5 79.5t67.5 24.5h65v193h-65q-49 0 -67.5 24.5t-18.5 79.5v412q0 126 -61 189t-191 63h-94v-193h49q60 0 81 -22.5t21 -81.5v-412q0 -121 66 -156q-66 -37 -66 -155v-412q0 -59 -21 -81.5t-81 -22.5h-49z" />
<glyph unicode="~" horiz-adv-x="1101" d="M111 565q144 150 280 150q53 0 114 -23.5t113 -47t84 -23.5q44 0 81.5 20t88.5 74l119 -131q-144 -150 -280 -150q-53 0 -114 23.5t-113.5 47t-84.5 23.5q-44 0 -81.5 -20t-88.5 -74z" />
<glyph unicode="&#xa1;" horiz-adv-x="536" d="M131 782v275h275v-275h-275zM162 -377v1004h215v-1004h-215z" />
<glyph unicode="&#xa2;" horiz-adv-x="1103" d="M123 418v229q0 92 24.5 166t63 121.5t92 80.5t106 48.5t109.5 19.5v187h88v-187q54 -4 103.5 -17t100.5 -42t90 -70t66.5 -105t34.5 -144h-219q-13 74 -59.5 117t-116.5 52v-686q71 11 118 54.5t60 117.5h217q-7 -80 -34.5 -144t-66.5 -105t-90 -70t-100.5 -42 t-103.5 -17v-187h-88v187q-57 5 -109.5 19.5t-106 47.5t-92 80t-63 121.5t-24.5 167.5zM338 422q0 -103 48 -162.5t132 -71.5v686q-84 -11 -132 -69.5t-48 -161.5v-221z" />
<glyph unicode="&#xa3;" horiz-adv-x="1232" d="M121 0v207h49q51 1 66.5 22.5t15.5 77.5v344h-131v135h131v230q0 100 28.5 178.5t73 126.5t104.5 79t117 42.5t117 11.5t117 -11.5t117 -42.5t105 -79t73.5 -126.5t28.5 -178.5v-4h-215q0 116 -61 175.5t-165 59.5t-164.5 -59.5t-60.5 -175.5v-226h451v-135h-451v-366 q0 -54 -18 -78h684v-207h-1012z" />
<glyph unicode="&#xa4;" horiz-adv-x="1460" d="M121 182l174 174q-117 149 -117 340t117 340l-174 174l94 97l174 -177q151 119 342 119q193 0 340 -116l174 174l94 -97l-174 -174q119 -151 119 -340q0 -191 -119 -342l174 -172l-94 -96l-174 174q-149 -117 -340 -117q-193 0 -342 117l-174 -174zM385 696 q0 -142 101.5 -244t244.5 -102t244.5 102t101.5 244t-101.5 244t-244.5 102t-244.5 -102t-101.5 -244z" />
<glyph unicode="&#xa5;" horiz-adv-x="1302" d="M37 1434l428 -752h-254v-135h332v-137h-332v-136h332v-274h215v274h332v136h-332v137h332v135h-254l430 752h-238l-377 -664l-377 664h-237z" />
<glyph unicode="&#xa6;" horiz-adv-x="497" d="M152 -205v694h194v-694h-194zM152 739v695h194v-695h-194z" />
<glyph unicode="&#xa7;" horiz-adv-x="1101" d="M115 551q0 98 43 174.5t123 120.5q-111 96 -111 264q0 150 102 247t275 97q174 0 273.5 -86t119.5 -254h-199q-29 150 -194 150q-75 0 -127.5 -43t-52.5 -115q0 -58 33.5 -99.5t84.5 -60.5l220 -78q48 -17 80.5 -32t74 -45t67 -65.5t43 -93t17.5 -128.5q0 -213 -168 -299 q113 -104 113 -271q0 -164 -101 -247.5t-278 -83.5q-176 0 -279.5 92t-123.5 266h200q10 -78 66 -123t137 -45q83 0 133.5 35.5t50.5 108.5q0 63 -32 107t-111 73l-197 69q-48 17 -81 32t-74 45t-66.5 66t-43 93.5t-17.5 128.5zM309 547q0 -65 34 -105t108 -67l139 -51 q95 6 149 54.5t54 127.5q0 65 -34.5 106t-107.5 68l-139 49q-95 -6 -148 -54t-55 -128z" />
<glyph unicode="&#xa8;" horiz-adv-x="860" d="M125 1192v219h215v-219h-215zM520 1192v219h215v-219h-215z" />
<glyph unicode="&#xa9;" horiz-adv-x="1634" d="M80 717q0 150 58 286.5t157 235.5t235.5 157t286.5 58t286.5 -58t235.5 -157t157 -235.5t58 -286.5t-58 -286.5t-157 -235.5t-235.5 -157t-286.5 -58t-286.5 58t-235.5 157t-157 235.5t-58 286.5zM274 717q0 -147 72.5 -272.5t197.5 -199t273 -73.5t273 73.5t197.5 199 t72.5 272.5t-72.5 272.5t-197.5 199t-273 73.5t-273 -73.5t-197.5 -199t-72.5 -272.5zM510 614v205q0 136 79.5 218.5t227.5 82.5q147 0 226.5 -78.5t82.5 -210.5h-176q-5 52 -39.5 83.5t-93.5 31.5q-62 0 -97.5 -34.5t-35.5 -92.5v-205q0 -58 35.5 -93.5t97.5 -35.5 q59 0 93.5 31t39.5 84h176q-3 -131 -82.5 -209t-226.5 -78q-148 0 -227.5 82t-79.5 219z" />
<glyph unicode="&#xaa;" horiz-adv-x="677" d="M45 991q0 71 24 109.5t83 73.5q61 35 284 51q-21 73 -104 73q-73 0 -101 -57h-174q52 209 275 209q77 0 133.5 -24t88 -67t46 -93.5t14.5 -110.5v-334h-174v76q-45 -88 -166 -88q-113 0 -171 49.5t-58 132.5zM219 1014q0 -21 19 -39.5t67 -18.5q61 0 98 34.5t37 80.5v12 q-156 -8 -186 -20q-23 -11 -29 -20.5t-6 -28.5z" />
<glyph unicode="&#xab;" horiz-adv-x="995" d="M104 463l353 -309v258l-168 147l168 148v258l-353 -310v-192zM522 463l352 -309v258l-167 147l167 148v258l-352 -310v-192z" />
<glyph unicode="&#xac;" horiz-adv-x="1142" d="M131 481v187h881v-535h-187v348h-694z" />
<glyph unicode="&#xad;" horiz-adv-x="794" d="M100 481v187h594v-187h-594z" />
<glyph unicode="&#xae;" horiz-adv-x="1634" d="M80 717q0 150 58 286.5t157 235.5t235.5 157t286.5 58t286.5 -58t235.5 -157t157 -235.5t58 -286.5t-58 -286.5t-157 -235.5t-235.5 -157t-286.5 -58t-286.5 58t-235.5 157t-157 235.5t-58 286.5zM274 717q0 -147 72.5 -272.5t197.5 -199t273 -73.5t273 73.5t197.5 199 t72.5 272.5t-72.5 272.5t-197.5 199t-273 73.5t-273 -73.5t-197.5 -199t-72.5 -272.5zM535 324h174v311h67l182 -311h203l-188 321q78 22 121 81t43 146q0 110 -67 173t-187 63h-348v-784zM709 805v131h180q34 0 54 -17.5t20 -50.5q0 -30 -20 -46.5t-54 -16.5h-180z" />
<glyph unicode="&#xaf;" horiz-adv-x="897" d="M119 1214v175h659v-175h-659z" />
<glyph unicode="&#xb0;" horiz-adv-x="823" d="M92 1124q0 132 94 226t226 94t225.5 -94t93.5 -226t-93.5 -225.5t-225.5 -93.5t-226 93.5t-94 225.5zM260 1124q0 -63 44.5 -108t107.5 -45t107 45t44 108t-44 108.5t-107 45.5t-107.5 -45.5t-44.5 -108.5z" />
<glyph unicode="&#xb1;" horiz-adv-x="1142" d="M131 0h881v186h-881v-186zM131 602h348v-268h187v268h346v186h-346v269h-187v-269h-348v-186z" />
<glyph unicode="&#xb2;" horiz-adv-x="651" d="M39 821v154l338 315q33 32 44 56t11 55q0 48 -27.5 79t-80.5 31t-82 -31t-29 -79v-12h-174q3 55 19 102t48 87.5t87.5 63.5t130.5 23q141 0 211.5 -76t70.5 -186q0 -80 -28.5 -135t-94.5 -115l-192 -178h315v-154h-567z" />
<glyph unicode="&#xb3;" horiz-adv-x="657" d="M39 1059q14 -108 81.5 -179t201.5 -71q140 0 211 64.5t71 168.5q0 49 -23 106.5t-59 82.5q42 34 62 82t20 94q0 47 -16 91t-48 82.5t-88.5 61.5t-129.5 23q-71 0 -124.5 -20.5t-85.5 -57t-49.5 -78.5t-23.5 -94h172q5 42 33.5 69t77.5 27q54 0 81 -30t27 -84 q0 -41 -31.5 -62.5t-87.5 -21.5h-67v-156h67q54 0 86.5 -27t32.5 -73q0 -43 -28.5 -68.5t-75.5 -25.5q-49 0 -79.5 27t-35.5 69h-172z" />
<glyph unicode="&#xb4;" horiz-adv-x="632" d="M123 1169l137 265h277l-242 -265h-172z" />
<glyph unicode="&#xb5;" horiz-adv-x="1150" d="M141 -377v1434h215v-635q0 -116 59.5 -175t159.5 -59t160 59t60 175v635h215v-1057h-215v96q-25 -45 -88 -80.5t-132 -35.5t-131.5 35.5t-87.5 80.5v-473h-215z" />
<glyph unicode="&#xb6;" horiz-adv-x="1259" d="M55 1024q0 168 120 289t288 121h635v-1612h-195v1419h-225v-1419h-195v792h-20q-169 0 -288.5 120.5t-119.5 289.5z" />
<glyph unicode="&#xb7;" horiz-adv-x="618" d="M172 457v274h274v-274h-274z" />
<glyph unicode="&#xb8;" horiz-adv-x="555" d="M100 -324l133 324h177l-78 -324h-232z" />
<glyph unicode="&#xb9;" horiz-adv-x="454" d="M39 1284v229l158 140h174v-832h-174v600z" />
<glyph unicode="&#xba;" horiz-adv-x="675" d="M55 1106v49q0 60 15 110.5t46.5 93.5t88 67t133.5 24t133.5 -24t88 -67t46.5 -93.5t15 -110.5v-49q0 -61 -15 -112t-46.5 -94t-88 -67t-133.5 -24t-133.5 24t-88 67t-46.5 94t-15 112zM229 1073q0 -48 28 -79t81 -31t80.5 31t27.5 79v115q0 48 -27.5 79t-80.5 31t-81 -31 t-28 -79v-115z" />
<glyph unicode="&#xbb;" horiz-adv-x="995" d="M96 154v258l168 147l-168 148v258l353 -310v-192zM514 154v258l168 147l-168 148v258l352 -310v-192z" />
<glyph unicode="&#xbc;" horiz-adv-x="1794" d="M244 1065v229l157 140h174v-832h-174v600zM307 0l985 1434h195l-985 -1434h-195zM1075 180v152l355 499h174v-499h86v-152h-86v-180h-174v180h-355zM1280 332h150v211z" />
<glyph unicode="&#xbd;" horiz-adv-x="1794" d="M244 1065v229l157 140h174v-832h-174v600zM307 0l985 1434h195l-985 -1434h-195zM1100 0v154l338 315q33 32 44 56t11 55q0 48 -28 79t-81 31t-81.5 -31t-28.5 -79v-13h-174q3 56 19 102.5t47.5 87.5t87.5 64t130 23q141 0 212 -76t71 -186q0 -80 -28.5 -135t-94.5 -115 l-192 -178h315v-154h-567z" />
<glyph unicode="&#xbe;" horiz-adv-x="1794" d="M127 840q14 -108 81.5 -179t201.5 -71q140 0 211 64.5t71 168.5q0 49 -23 106.5t-59 82.5q42 34 62 82t20 94q0 47 -16 91t-48 82.5t-88.5 61.5t-129.5 23q-71 0 -124.5 -20.5t-85.5 -57t-49.5 -78.5t-23.5 -94h172q5 42 33.5 69t77.5 27q54 0 81 -30t27 -84 q0 -41 -31.5 -62.5t-87.5 -21.5h-67v-156h67q54 0 86.5 -27t32.5 -73q0 -43 -28.5 -69t-75.5 -26q-49 0 -79.5 27.5t-35.5 69.5h-172zM307 0l985 1434h195l-985 -1434h-195zM1075 180v152l355 499h174v-499h86v-152h-86v-180h-174v180h-355zM1280 332h150v211z" />
<glyph unicode="&#xbf;" horiz-adv-x="1019" d="M86 41q0 192 172 350l107 98q38 35 50.5 57t12.5 56v25h215v-45q0 -71 -25 -118t-100 -114l-106 -98q-111 -103 -111 -207q0 -116 60.5 -175.5t164.5 -59.5q101 0 162 56.5t64 166.5h215q-1 -98 -30 -175t-74 -123.5t-104.5 -77.5t-116.5 -42.5t-116 -11.5 q-60 0 -117 11.5t-117 42.5t-104.5 79t-73 126.5t-28.5 178.5zM389 782v275h275v-275h-275z" />
<glyph unicode="&#xc0;" horiz-adv-x="1261" d="M16 0l502 1434h225l502 -1434h-225l-121 346h-537l-120 -346h-226zM319 1749l263 -223h186l-168 223h-281zM432 549h397l-198 569z" />
<glyph unicode="&#xc1;" horiz-adv-x="1261" d="M16 0l502 1434h225l502 -1434h-225l-121 346h-537l-120 -346h-226zM432 549h397l-198 569zM481 1526l168 223h281l-262 -223h-187z" />
<glyph unicode="&#xc2;" horiz-adv-x="1261" d="M16 0l502 1434h225l502 -1434h-225l-121 346h-537l-120 -346h-226zM274 1526h267l90 73l90 -73h266l-270 223h-172zM432 549h397l-198 569z" />
<glyph unicode="&#xc3;" horiz-adv-x="1261" d="M16 0l502 1434h225l502 -1434h-225l-121 346h-537l-120 -346h-226zM281 1522q12 72 39.5 122.5t62.5 73.5t65 32t60 9q69 0 106 -16l78 -33q28 -12 41 -12q42 0 62 57h186q-12 -72 -39.5 -122.5t-62.5 -73.5t-65 -32t-60 -9q-70 0 -107 16l-78 33q-28 12 -41 12 q-41 0 -61 -57h-186zM432 549h397l-198 569z" />
<glyph unicode="&#xc4;" horiz-adv-x="1261" d="M16 0l502 1434h225l502 -1434h-225l-121 346h-537l-120 -346h-226zM326 1528v219h219v-219h-219zM432 549h397l-198 569zM717 1528v219h219v-219h-219z" />
<glyph unicode="&#xc5;" horiz-adv-x="1261" d="M16 0l502 1434h225l502 -1434h-225l-121 346h-537l-120 -346h-226zM432 549h397l-198 569zM479 1636q0 63 44.5 108.5t107.5 45.5t108 -45.5t45 -108.5t-45 -107t-108 -44t-107.5 44t-44.5 107zM588 1636q0 -19 12 -31t31 -12t31 12t12 31t-12 31t-31 12t-31 -12t-12 -31 z" />
<glyph unicode="&#xc6;" horiz-adv-x="1761" d="M2 0l660 1434h980v-217h-626v-386h626v-217h-626v-397h626v-217h-845v346h-404l-160 -346h-231zM485 549h312v676z" />
<glyph unicode="&#xc7;" horiz-adv-x="1222" d="M109 485v463q0 231 141.5 368.5t372.5 137.5q221 0 360.5 -125.5t151.5 -339.5h-220q-13 121 -97.5 184.5t-194.5 63.5q-55 0 -106.5 -17.5t-94.5 -51t-68.5 -91t-25.5 -129.5v-463q0 -72 25.5 -129t68.5 -91t94 -51t107 -17q110 0 194.5 63t97.5 184h220 q-12 -188 -122 -309t-290 -147l-74 -312h-235l116 310q-194 27 -307.5 159.5t-113.5 339.5z" />
<glyph unicode="&#xc8;" horiz-adv-x="1116" d="M152 0v1434h845v-217h-626v-386h626v-217h-626v-397h626v-217h-845zM262 1749l262 -223h187l-168 223h-281z" />
<glyph unicode="&#xc9;" horiz-adv-x="1116" d="M152 0v1434h845v-217h-626v-386h626v-217h-626v-397h626v-217h-845zM424 1526l168 223h280l-262 -223h-186z" />
<glyph unicode="&#xca;" horiz-adv-x="1116" d="M152 0v1434h845v-217h-626v-386h626v-217h-626v-397h626v-217h-845zM217 1526h266l90 73l91 -73h266l-271 223h-172z" />
<glyph unicode="&#xcb;" horiz-adv-x="1116" d="M152 0v1434h845v-217h-626v-386h626v-217h-626v-397h626v-217h-845zM268 1528v219h219v-219h-219zM659 1528v219h220v-219h-220z" />
<glyph unicode="&#xcc;" horiz-adv-x="522" d="M-51 1749l262 -223h186l-168 223h-280zM152 0v1434h219v-1434h-219z" />
<glyph unicode="&#xcd;" horiz-adv-x="522" d="M111 1526l168 223h280l-262 -223h-186zM152 0v1434h219v-1434h-219z" />
<glyph unicode="&#xce;" horiz-adv-x="522" d="M-96 1526h266l90 73l90 -73h266l-270 223h-172zM152 0v1434h219v-1434h-219z" />
<glyph unicode="&#xcf;" horiz-adv-x="522" d="M-45 1528v219h219v-219h-219zM152 0v1434h219v-1434h-219zM346 1528v219h219v-219h-219z" />
<glyph unicode="&#xd0;" horiz-adv-x="1310" d="M31 645v146h143v643h514q231 0 372.5 -137.5t141.5 -368.5v-422q0 -231 -141.5 -368.5t-372.5 -137.5h-514v645h-143zM393 217h295q75 0 140 30t110 98.5t45 164.5v414q0 96 -45 164.5t-110 98.5t-140 30h-295v-426h295v-146h-295v-428z" />
<glyph unicode="&#xd1;" horiz-adv-x="1331" d="M152 0v1434h219l590 -1028v1028h219v-1434h-219l-590 1028v-1028h-219zM315 1522q10 59 31 103.5t44.5 69t53 40t52.5 20t47 4.5q69 0 106 -16l78 -33q28 -12 41 -12q41 0 61 57h187q-10 -59 -31 -103.5t-44.5 -69t-53 -40t-52.5 -20t-47 -4.5q-69 0 -106 16l-78 33 q-28 12 -41 12q-41 0 -61 -57h-187z" />
<glyph unicode="&#xd2;" horiz-adv-x="1245" d="M109 485v463q0 231 141.5 368.5t372.5 137.5t372.5 -137.5t141.5 -368.5v-463q0 -230 -141 -367.5t-373 -137.5t-373 137.5t-141 367.5zM311 1749l262 -223h187l-168 223h-281zM328 485q0 -72 25.5 -129t68.5 -91t94 -51t107 -17t107 17t94 51t68.5 91t25.5 129v463 q0 72 -25.5 129.5t-68.5 91t-94.5 51t-106.5 17.5t-106.5 -17.5t-94.5 -51t-68.5 -91t-25.5 -129.5v-463z" />
<glyph unicode="&#xd3;" horiz-adv-x="1245" d="M109 485v463q0 231 141.5 368.5t372.5 137.5t372.5 -137.5t141.5 -368.5v-463q0 -230 -141 -367.5t-373 -137.5t-373 137.5t-141 367.5zM328 485q0 -72 25.5 -129t68.5 -91t94 -51t107 -17t107 17t94 51t68.5 91t25.5 129v463q0 72 -25.5 129.5t-68.5 91t-94.5 51 t-106.5 17.5t-106.5 -17.5t-94.5 -51t-68.5 -91t-25.5 -129.5v-463zM473 1526l168 223h281l-263 -223h-186z" />
<glyph unicode="&#xd4;" horiz-adv-x="1245" d="M109 485v463q0 231 141.5 368.5t372.5 137.5t372.5 -137.5t141.5 -368.5v-463q0 -230 -141 -367.5t-373 -137.5t-373 137.5t-141 367.5zM266 1526h266l91 73l90 -73h266l-270 223h-172zM328 485q0 -72 25.5 -129t68.5 -91t94 -51t107 -17t107 17t94 51t68.5 91t25.5 129 v463q0 72 -25.5 129.5t-68.5 91t-94.5 51t-106.5 17.5t-106.5 -17.5t-94.5 -51t-68.5 -91t-25.5 -129.5v-463z" />
<glyph unicode="&#xd5;" horiz-adv-x="1245" d="M109 485v463q0 231 141.5 368.5t372.5 137.5t372.5 -137.5t141.5 -368.5v-463q0 -230 -141 -367.5t-373 -137.5t-373 137.5t-141 367.5zM272 1522q10 59 31 103.5t44.5 69t53 40t52.5 20t47 4.5q69 0 106 -16l78 -33q28 -12 41 -12q41 0 61 57h187q-10 -59 -31 -103.5 t-44.5 -69t-53 -40t-52.5 -20t-47 -4.5q-69 0 -106 16l-78 33q-28 12 -41 12q-41 0 -61 -57h-187zM328 485q0 -72 25.5 -129t68.5 -91t94 -51t107 -17t107 17t94 51t68.5 91t25.5 129v463q0 72 -25.5 129.5t-68.5 91t-94.5 51t-106.5 17.5t-106.5 -17.5t-94.5 -51t-68.5 -91 t-25.5 -129.5v-463z" />
<glyph unicode="&#xd6;" horiz-adv-x="1245" d="M109 485v463q0 231 141.5 368.5t372.5 137.5t372.5 -137.5t141.5 -368.5v-463q0 -230 -141 -367.5t-373 -137.5t-373 137.5t-141 367.5zM317 1528v219h220v-219h-220zM328 485q0 -72 25.5 -129t68.5 -91t94 -51t107 -17t107 17t94 51t68.5 91t25.5 129v463 q0 72 -25.5 129.5t-68.5 91t-94.5 51t-106.5 17.5t-106.5 -17.5t-94.5 -51t-68.5 -91t-25.5 -129.5v-463zM709 1528v219h219v-219h-219z" />
<glyph unicode="&#xd7;" horiz-adv-x="1142" d="M125 260l313 315l-313 316l131 133l315 -317l316 317l131 -133l-316 -316l316 -315l-131 -133l-316 315l-315 -315z" />
<glyph unicode="&#xd8;" horiz-adv-x="1257" d="M115 20l92 152q-92 128 -92 313v463q0 231 141.5 368.5t372.5 137.5q178 0 311 -90l80 129l123 -80l-94 -151q94 -129 94 -314v-463q0 -230 -141 -367.5t-373 -137.5q-184 0 -314 88l-75 -125zM334 485q0 -45 10 -90l479 779q-81 63 -194 63q-55 0 -106.5 -17.5 t-94.5 -51t-68.5 -91t-25.5 -129.5v-463zM434 260q81 -63 195 -63q56 0 107 17t94 51t68.5 91t25.5 129v463q0 46 -13 90z" />
<glyph unicode="&#xd9;" horiz-adv-x="1294" d="M133 485v949h219v-949q0 -72 25.5 -129t68.5 -91t94 -51t107 -17t107 17t94 51t68.5 91t25.5 129v949h219v-949q0 -230 -141 -367.5t-373 -137.5t-373 137.5t-141 367.5zM336 1749l262 -223h186l-168 223h-280z" />
<glyph unicode="&#xda;" horiz-adv-x="1294" d="M133 485v949h219v-949q0 -72 25.5 -129t68.5 -91t94 -51t107 -17t107 17t94 51t68.5 91t25.5 129v949h219v-949q0 -230 -141 -367.5t-373 -137.5t-373 137.5t-141 367.5zM498 1526l168 223h280l-262 -223h-186z" />
<glyph unicode="&#xdb;" horiz-adv-x="1294" d="M133 485v949h219v-949q0 -72 25.5 -129t68.5 -91t94 -51t107 -17t107 17t94 51t68.5 91t25.5 129v949h219v-949q0 -230 -141 -367.5t-373 -137.5t-373 137.5t-141 367.5zM291 1526h266l90 73l90 -73h267l-271 223h-172z" />
<glyph unicode="&#xdc;" horiz-adv-x="1294" d="M133 485v949h219v-949q0 -72 25.5 -129t68.5 -91t94 -51t107 -17t107 17t94 51t68.5 91t25.5 129v949h219v-949q0 -230 -141 -367.5t-373 -137.5t-373 137.5t-141 367.5zM342 1528v219h219v-219h-219zM733 1528v219h219v-219h-219z" />
<glyph unicode="&#xdd;" horiz-adv-x="1216" d="M-6 1434l504 -887v-547h219v547l506 887h-242l-373 -660l-372 660h-242zM459 1526l168 223h280l-262 -223h-186z" />
<glyph unicode="&#xde;" horiz-adv-x="1206" d="M152 0v1434h219v-248h325q121 0 215 -37t152 -102.5t87.5 -149t29.5 -180.5t-29.5 -180.5t-87.5 -149t-152 -102.5t-215 -37h-325v-248h-219zM371 465h325q131 0 195.5 71.5t64.5 182.5t-64.5 182.5t-195.5 71.5h-325v-508z" />
<glyph unicode="&#xdf;" horiz-adv-x="1107" d="M141 0v1055q0 399 389 399q390 0 390 -399q0 -174 -76 -269q178 -118 178 -358q0 -111 -34 -198t-93.5 -141t-137 -81.5t-167.5 -27.5q-50 0 -105 10v217q51 -21 105 -21q217 0 217 242q0 106 -63 173t-185 67h-74v198h45q175 0 175 189q0 92 -43.5 142t-131.5 50 q-174 0 -174 -192v-1055h-215z" />
<glyph unicode="&#xe0;" horiz-adv-x="1112" d="M94 293q0 66 19.5 124.5t73.5 112.5t137 80q86 27 184.5 39t259.5 23v2q-7 100 -67 152.5t-156 52.5q-81 0 -137.5 -38t-77.5 -112h-219q13 100 58.5 173t110 111t130 55t135.5 17q60 0 117 -11.5t117 -42.5t104.5 -79t73 -126.5t28.5 -178.5v-647h-215v100 q-100 -120 -315 -120q-74 0 -138 19t-114.5 56t-79.5 98t-29 140zM266 1434l242 -265h172l-137 265h-277zM309 311q0 -125 180 -125q41 0 77 5.5t74.5 21t66 41t45.5 68.5t18 100v59q-169 -11 -263 -25t-147 -46q-51 -30 -51 -99z" />
<glyph unicode="&#xe1;" horiz-adv-x="1112" d="M94 293q0 66 19.5 124.5t73.5 112.5t137 80q86 27 184.5 39t259.5 23v2q-7 100 -67 152.5t-156 52.5q-81 0 -137.5 -38t-77.5 -112h-219q13 100 58.5 173t110 111t130 55t135.5 17q60 0 117 -11.5t117 -42.5t104.5 -79t73 -126.5t28.5 -178.5v-647h-215v100 q-100 -120 -315 -120q-74 0 -138 19t-114.5 56t-79.5 98t-29 140zM309 311q0 -125 180 -125q41 0 77 5.5t74.5 21t66 41t45.5 68.5t18 100v59q-169 -11 -263 -25t-147 -46q-51 -30 -51 -99zM401 1169l138 265h276l-242 -265h-172z" />
<glyph unicode="&#xe2;" horiz-adv-x="1112" d="M94 293q0 66 19.5 124.5t73.5 112.5t137 80q86 27 184.5 39t259.5 23v2q-7 100 -67 152.5t-156 52.5q-81 0 -137.5 -38t-77.5 -112h-219q13 100 58.5 173t110 111t130 55t135.5 17q60 0 117 -11.5t117 -42.5t104.5 -79t73 -126.5t28.5 -178.5v-647h-215v100 q-100 -120 -315 -120q-74 0 -138 19t-114.5 56t-79.5 98t-29 140zM203 1169l270 265h172l270 -265h-239l-117 115l-117 -115h-239zM309 311q0 -125 180 -125q41 0 77 5.5t74.5 21t66 41t45.5 68.5t18 100v59q-169 -11 -263 -25t-147 -46q-51 -30 -51 -99z" />
<glyph unicode="&#xe3;" horiz-adv-x="1112" d="M94 293q0 66 19.5 124.5t73.5 112.5t137 80q86 27 184.5 39t259.5 23v2q-7 100 -67 152.5t-156 52.5q-81 0 -137.5 -38t-77.5 -112h-219q13 100 58.5 173t110 111t130 55t135.5 17q60 0 117 -11.5t117 -42.5t104.5 -79t73 -126.5t28.5 -178.5v-647h-215v100 q-100 -120 -315 -120q-74 0 -138 19t-114.5 56t-79.5 98t-29 140zM209 1186q12 72 39.5 122.5t62.5 73.5t65 32t60 9q65 0 107 -18l78 -33q33 -14 55 -14q40 0 61 61h172q-12 -72 -39.5 -122.5t-62.5 -73.5t-65 -32t-60 -9q-65 0 -107 18l-77 33q-33 14 -56 14 q-40 0 -61 -61h-172zM309 311q0 -125 180 -125q41 0 77 5.5t74.5 21t66 41t45.5 68.5t18 100v59q-169 -11 -263 -25t-147 -46q-51 -30 -51 -99z" />
<glyph unicode="&#xe4;" horiz-adv-x="1112" d="M94 293q0 66 19.5 124.5t73.5 112.5t137 80q86 27 184.5 39t259.5 23v2q-7 100 -67 152.5t-156 52.5q-81 0 -137.5 -38t-77.5 -112h-219q13 100 58.5 173t110 111t130 55t135.5 17q60 0 117 -11.5t117 -42.5t104.5 -79t73 -126.5t28.5 -178.5v-647h-215v100 q-100 -120 -315 -120q-74 0 -138 19t-114.5 56t-79.5 98t-29 140zM254 1192v219h215v-219h-215zM309 311q0 -125 180 -125q41 0 77 5.5t74.5 21t66 41t45.5 68.5t18 100v59q-169 -11 -263 -25t-147 -46q-51 -30 -51 -99zM649 1192v219h215v-219h-215z" />
<glyph unicode="&#xe5;" horiz-adv-x="1112" d="M94 293q0 66 19.5 124.5t73.5 112.5t137 80q86 27 184.5 39t259.5 23v2q-7 100 -67 152.5t-156 52.5q-81 0 -137.5 -38t-77.5 -112h-219q13 100 58.5 173t110 111t130 55t135.5 17q60 0 117 -11.5t117 -42.5t104.5 -79t73 -126.5t28.5 -178.5v-647h-215v100 q-100 -120 -315 -120q-74 0 -138 19t-114.5 56t-79.5 98t-29 140zM309 311q0 -125 180 -125q41 0 77 5.5t74.5 21t66 41t45.5 68.5t18 100v59q-169 -11 -263 -25t-147 -46q-51 -30 -51 -99zM408 1300q0 63 44 108.5t107 45.5t108.5 -45.5t45.5 -108.5t-45.5 -107t-108.5 -44 t-107 44t-44 107zM512 1300q0 -20 13.5 -33.5t33.5 -13.5t33.5 13.5t13.5 33.5t-13.5 34t-33.5 14t-33.5 -14t-13.5 -34z" />
<glyph unicode="&#xe6;" horiz-adv-x="1753" d="M94 293q0 66 19.5 124.5t73.5 112.5t137 80q86 27 184.5 39t259.5 23q-7 102 -66.5 154.5t-156.5 52.5q-81 0 -137.5 -38t-77.5 -112h-219q13 100 58.5 173t110 111t130 55t135.5 17q224 0 332 -149q114 149 333 149q60 0 117 -11.5t117 -42.5t105 -79t73.5 -126.5 t28.5 -178.5v-190h-666v-35q0 -116 61 -176t164 -60q81 0 137.5 38t77.5 112h220q-13 -100 -58.5 -173t-110.5 -111t-130.5 -55t-135.5 -17q-114 0 -219 45.5t-164 148.5q-65 -108 -156 -151t-216 -43q-74 0 -138 19t-114.5 56t-79.5 98t-29 140zM309 311q0 -125 180 -125 q41 0 77 5.5t74.5 21t66 41t45.5 68.5t18 100v59q-169 -11 -263 -25t-147 -46q-51 -30 -51 -99zM985 647h451q-1 114 -62.5 173t-163.5 59q-103 0 -164 -59t-61 -173z" />
<glyph unicode="&#xe7;" horiz-adv-x="1083" d="M113 418v229q0 100 28.5 178.5t73 126.5t104.5 79t117 42.5t117 11.5q56 0 110 -10t111 -37t101.5 -68.5t76 -109.5t39.5 -155h-219q-15 86 -72.5 130t-146.5 44q-103 0 -164 -60t-61 -176v-221q0 -116 61 -176t164 -60q89 0 147.5 44t73.5 130h217q-8 -89 -40.5 -158 t-81.5 -111.5t-102.5 -67t-115.5 -35.5l-73 -312h-232l127 310q-55 7 -104 24.5t-97 51t-82.5 80.5t-55.5 118t-21 158z" />
<glyph unicode="&#xe8;" horiz-adv-x="1095" d="M113 418v229q0 100 28.5 178.5t73 126.5t104.5 79t117 42.5t117 11.5t117 -11.5t117 -42.5t104.5 -79t73 -126.5t28.5 -178.5v-190h-665v-35q0 -116 61 -176t164 -60q81 0 137.5 38t77.5 112h219q-13 -100 -58.5 -173t-110 -111t-130 -55t-135.5 -17q-60 0 -117 11.5 t-117 42.5t-104.5 79t-73 126.5t-28.5 178.5zM281 1434l241 -265h172l-137 265h-276zM328 647h450v2q-1 112 -62 171t-163 59q-103 0 -164 -59t-61 -171v-2z" />
<glyph unicode="&#xe9;" horiz-adv-x="1095" d="M113 418v229q0 100 28.5 178.5t73 126.5t104.5 79t117 42.5t117 11.5t117 -11.5t117 -42.5t104.5 -79t73 -126.5t28.5 -178.5v-190h-665v-35q0 -116 61 -176t164 -60q81 0 137.5 38t77.5 112h219q-13 -100 -58.5 -173t-110 -111t-130 -55t-135.5 -17q-60 0 -117 11.5 t-117 42.5t-104.5 79t-73 126.5t-28.5 178.5zM328 647h450v2q-1 112 -62 171t-163 59q-103 0 -164 -59t-61 -171v-2zM416 1169l137 265h276l-241 -265h-172z" />
<glyph unicode="&#xea;" horiz-adv-x="1095" d="M113 418v229q0 100 28.5 178.5t73 126.5t104.5 79t117 42.5t117 11.5t117 -11.5t117 -42.5t104.5 -79t73 -126.5t28.5 -178.5v-190h-665v-35q0 -116 61 -176t164 -60q81 0 137.5 38t77.5 112h219q-13 -100 -58.5 -173t-110 -111t-130 -55t-135.5 -17q-60 0 -117 11.5 t-117 42.5t-104.5 79t-73 126.5t-28.5 178.5zM197 1169l270 265h172l270 -265h-239l-117 115l-117 -115h-239zM328 647h450v2q-1 112 -62 171t-163 59q-103 0 -164 -59t-61 -171v-2z" />
<glyph unicode="&#xeb;" horiz-adv-x="1095" d="M113 418v229q0 100 28.5 178.5t73 126.5t104.5 79t117 42.5t117 11.5t117 -11.5t117 -42.5t104.5 -79t73 -126.5t28.5 -178.5v-190h-665v-35q0 -116 61 -176t164 -60q81 0 137.5 38t77.5 112h219q-13 -100 -58.5 -173t-110 -111t-130 -55t-135.5 -17q-60 0 -117 11.5 t-117 42.5t-104.5 79t-73 126.5t-28.5 178.5zM248 1192v219h215v-219h-215zM328 647h450v2q-1 112 -62 171t-163 59q-103 0 -164 -59t-61 -171v-2zM643 1192v219h215v-219h-215z" />
<glyph unicode="&#xec;" horiz-adv-x="497" d="M-25 1434l242 -265h172l-137 265h-277zM141 0v1057h215v-1057h-215z" />
<glyph unicode="&#xed;" horiz-adv-x="497" d="M111 1169l137 265h276l-241 -265h-172zM141 0v1057h215v-1057h-215z" />
<glyph unicode="&#xee;" horiz-adv-x="497" d="M-109 1169l271 265h172l270 -265h-239l-117 115l-117 -115h-240zM141 0v1057h215v-1057h-215z" />
<glyph unicode="&#xef;" horiz-adv-x="497" d="M-57 1192v219h215v-219h-215zM141 0v1057h215v-1057h-215zM338 1192v219h215v-219h-215z" />
<glyph unicode="&#xf0;" horiz-adv-x="1105" d="M113 418v229q0 97 27 174t69.5 124.5t100 79.5t113 45t114.5 15l-68 93h-256v135h158l-88 121h258l88 -121h202v-135h-104l174 -240q92 -126 92 -291v-229q0 -100 -28.5 -178.5t-73 -126.5t-104.5 -79t-117 -42.5t-117 -11.5t-117 11.5t-117 42.5t-104.5 79t-73 126.5 t-28.5 178.5zM328 422q0 -116 61 -176t164 -60t164 60t61 176v221q0 116 -61 176t-164 60t-164 -60t-61 -176v-221z" />
<glyph unicode="&#xf1;" horiz-adv-x="1148" d="M141 0v1057h215v-92q24 48 95 84t151 36q57 0 113.5 -14t112.5 -47t98.5 -81.5t69 -125t26.5 -170.5v-647h-215v643q0 116 -60.5 175t-164.5 59t-165 -59t-61 -175v-643h-215zM231 1186q10 59 31 103.5t44.5 69t53 40t52.5 20t47 4.5q64 0 106 -18l78 -33q33 -14 55 -14 q41 0 62 61h172q-12 -72 -39.5 -122.5t-62.5 -73.5t-65 -32t-60 -9q-65 0 -107 18l-78 33q-33 14 -55 14q-41 0 -62 -61h-172z" />
<glyph unicode="&#xf2;" horiz-adv-x="1105" d="M113 418v229q0 100 28.5 178.5t73 126.5t104.5 79t117 42.5t117 11.5t117 -11.5t117 -42.5t104.5 -79t73 -126.5t28.5 -178.5v-229q0 -100 -28.5 -178.5t-73 -126.5t-104.5 -79t-117 -42.5t-117 -11.5t-117 11.5t-117 42.5t-104.5 79t-73 126.5t-28.5 178.5zM281 1434 l241 -265h172l-137 265h-276zM328 422q0 -116 61 -176t164 -60t164 60t61 176v221q0 116 -61 176t-164 60t-164 -60t-61 -176v-221z" />
<glyph unicode="&#xf3;" horiz-adv-x="1105" d="M113 418v229q0 100 28.5 178.5t73 126.5t104.5 79t117 42.5t117 11.5t117 -11.5t117 -42.5t104.5 -79t73 -126.5t28.5 -178.5v-229q0 -100 -28.5 -178.5t-73 -126.5t-104.5 -79t-117 -42.5t-117 -11.5t-117 11.5t-117 42.5t-104.5 79t-73 126.5t-28.5 178.5zM328 422 q0 -116 61 -176t164 -60t164 60t61 176v221q0 116 -61 176t-164 60t-164 -60t-61 -176v-221zM416 1169l137 265h276l-241 -265h-172z" />
<glyph unicode="&#xf4;" horiz-adv-x="1105" d="M113 418v229q0 100 28.5 178.5t73 126.5t104.5 79t117 42.5t117 11.5t117 -11.5t117 -42.5t104.5 -79t73 -126.5t28.5 -178.5v-229q0 -100 -28.5 -178.5t-73 -126.5t-104.5 -79t-117 -42.5t-117 -11.5t-117 11.5t-117 42.5t-104.5 79t-73 126.5t-28.5 178.5zM197 1169 l270 265h172l270 -265h-239l-117 115l-117 -115h-239zM328 422q0 -116 61 -176t164 -60t164 60t61 176v221q0 116 -61 176t-164 60t-164 -60t-61 -176v-221z" />
<glyph unicode="&#xf5;" horiz-adv-x="1105" d="M113 418v229q0 100 28.5 178.5t73 126.5t104.5 79t117 42.5t117 11.5t117 -11.5t117 -42.5t104.5 -79t73 -126.5t28.5 -178.5v-229q0 -100 -28.5 -178.5t-73 -126.5t-104.5 -79t-117 -42.5t-117 -11.5t-117 11.5t-117 42.5t-104.5 79t-73 126.5t-28.5 178.5zM203 1186 q12 72 39.5 122.5t62.5 73.5t65 32t60 9q65 0 107 -18l77 -33q33 -14 56 -14q40 0 61 61h172q-12 -72 -39.5 -122.5t-62.5 -73.5t-65 -32t-60 -9q-65 0 -107 18l-77 33q-33 14 -56 14q-40 0 -61 -61h-172zM328 422q0 -116 61 -176t164 -60t164 60t61 176v221q0 116 -61 176 t-164 60t-164 -60t-61 -176v-221z" />
<glyph unicode="&#xf6;" horiz-adv-x="1105" d="M113 418v229q0 100 28.5 178.5t73 126.5t104.5 79t117 42.5t117 11.5t117 -11.5t117 -42.5t104.5 -79t73 -126.5t28.5 -178.5v-229q0 -100 -28.5 -178.5t-73 -126.5t-104.5 -79t-117 -42.5t-117 -11.5t-117 11.5t-117 42.5t-104.5 79t-73 126.5t-28.5 178.5zM248 1192 v219h215v-219h-215zM328 422q0 -116 61 -176t164 -60t164 60t61 176v221q0 116 -61 176t-164 60t-164 -60t-61 -176v-221zM643 1192v219h215v-219h-215z" />
<glyph unicode="&#xf7;" horiz-adv-x="1142" d="M131 481v187h881v-187h-881zM434 219q0 57 40 97t97 40t97.5 -40t40.5 -97t-40.5 -97t-97.5 -40t-97 40t-40 97zM434 930q0 57 40 97t97 40t97.5 -40t40.5 -97t-40.5 -97t-97.5 -40t-97 40t-40 97z" />
<glyph unicode="&#xf8;" horiz-adv-x="1118" d="M119 29l80 110q-80 108 -80 279v229q0 100 28.5 178.5t73 126.5t104.5 79t117 42.5t117 11.5q149 0 260 -69l70 98l110 -78l-79 -112q79 -106 79 -277v-229q0 -100 -28.5 -178.5t-73 -126.5t-104.5 -79t-117 -42.5t-117 -11.5q-150 0 -262 67l-68 -96zM334 422 q0 -47 8 -80l354 500q-55 37 -137 37q-103 0 -164 -60t-61 -176v-221zM422 223q55 -37 137 -37q103 0 164 60t61 176v221q0 47 -8 78z" />
<glyph unicode="&#xf9;" horiz-adv-x="1136" d="M127 418v639h215v-635q0 -116 59.5 -175t159.5 -59t159.5 59t59.5 175v635h215v-1057h-215v100q-24 -48 -94.5 -84t-150.5 -36q-56 0 -112 15.5t-110 49.5t-95 84t-66 124.5t-25 164.5zM289 1434l241 -265h172l-137 265h-276z" />
<glyph unicode="&#xfa;" horiz-adv-x="1136" d="M127 418v639h215v-635q0 -116 59.5 -175t159.5 -59t159.5 59t59.5 175v635h215v-1057h-215v100q-24 -48 -94.5 -84t-150.5 -36q-56 0 -112 15.5t-110 49.5t-95 84t-66 124.5t-25 164.5zM424 1169l137 265h277l-242 -265h-172z" />
<glyph unicode="&#xfb;" horiz-adv-x="1136" d="M127 418v639h215v-635q0 -116 59.5 -175t159.5 -59t159.5 59t59.5 175v635h215v-1057h-215v100q-24 -48 -94.5 -84t-150.5 -36q-56 0 -112 15.5t-110 49.5t-95 84t-66 124.5t-25 164.5zM205 1169l270 265h172l271 -265h-240l-117 115l-117 -115h-239z" />
<glyph unicode="&#xfc;" horiz-adv-x="1136" d="M127 418v639h215v-635q0 -116 59.5 -175t159.5 -59t159.5 59t59.5 175v635h215v-1057h-215v100q-24 -48 -94.5 -84t-150.5 -36q-56 0 -112 15.5t-110 49.5t-95 84t-66 124.5t-25 164.5zM256 1192v219h215v-219h-215zM651 1192v219h215v-219h-215z" />
<glyph unicode="&#xfd;" horiz-adv-x="974" d="M0 1057h223l264 -752l265 752h223l-469 -1301q-47 -133 -234 -133h-110v207h43q40 0 61 3t37 19t22 29.5t23 55.5l29 77zM350 1169l137 265h277l-242 -265h-172z" />
<glyph unicode="&#xfe;" horiz-adv-x="1134" d="M141 -377v1811h215v-469q24 48 95 84t151 36q57 0 113.5 -14t112.5 -47t98.5 -81.5t69 -125t26.5 -170.5v-229q0 -94 -26.5 -170.5t-69 -125t-98.5 -81.5t-112.5 -47t-113.5 -14q-80 0 -151 36t-95 84v-477h-215zM356 422q0 -116 61 -175t165 -59t164.5 59t60.5 175v221 q0 116 -60.5 175t-164.5 59t-165 -59t-61 -175v-221z" />
<glyph unicode="&#xff;" horiz-adv-x="974" d="M0 1057h223l264 -752l265 752h223l-469 -1301q-47 -133 -234 -133h-110v207h43q40 0 61 3t37 19t22 29.5t23 55.5l29 77zM182 1192v219h215v-219h-215zM578 1192v219h215v-219h-215z" />
<glyph unicode="&#x152;" horiz-adv-x="1882" d="M109 485v463q0 231 141.5 368.5t372.5 137.5q190 0 295 -102v82h845v-217h-626v-386h626v-217h-626v-397h626v-217h-845v82q-105 -102 -295 -102q-232 0 -373 137.5t-141 367.5zM328 485q0 -72 25.5 -129t68.5 -91t94 -51t107 -17t107 17t94 51t68.5 91t25.5 129v463 q0 72 -25.5 129.5t-68.5 91t-94.5 51t-106.5 17.5t-106.5 -17.5t-94.5 -51t-68.5 -91t-25.5 -129.5v-463z" />
<glyph unicode="&#x153;" horiz-adv-x="1761" d="M113 418v229q0 100 28.5 178.5t73 126.5t104.5 79t117 42.5t117 11.5q224 0 332 -149q114 149 334 149q60 0 117 -11.5t117 -42.5t104.5 -79t73 -126.5t28.5 -178.5v-190h-666v-35q0 -116 61 -176t165 -60q81 0 137.5 38t77.5 112h219q-13 -100 -58.5 -173t-110 -111 t-130 -55t-135.5 -17q-220 0 -334 149q-108 -149 -332 -149q-60 0 -117 11.5t-117 42.5t-104.5 79t-73 126.5t-28.5 178.5zM328 422q0 -116 61 -176t164 -60t164 60t61 176v221q0 116 -61 176t-164 60t-164 -60t-61 -176v-221zM993 647h451q-1 114 -62 173t-163 59 q-103 0 -164.5 -59t-61.5 -173z" />
<glyph unicode="&#x178;" horiz-adv-x="1216" d="M-6 1434l504 -887v-547h219v547l506 887h-242l-373 -660l-372 660h-242zM303 1528v219h219v-219h-219zM694 1528v219h219v-219h-219z" />
<glyph unicode="&#x2c6;" horiz-adv-x="925" d="M106 1169l271 265h172l270 -265h-239l-117 115l-117 -115h-240z" />
<glyph unicode="&#x2dc;" horiz-adv-x="925" d="M113 1186q12 72 39.5 122.5t62.5 73.5t65 32t60 9q64 0 106 -18l78 -33q33 -14 56 -14q40 0 61 61h172q-12 -72 -39.5 -122.5t-62.5 -73.5t-65 -32t-60 -9q-65 0 -107 18l-78 33q-33 14 -55 14q-40 0 -61 -61h-172z" />
<glyph unicode="&#x2000;" horiz-adv-x="895" />
<glyph unicode="&#x2001;" horiz-adv-x="1790" />
<glyph unicode="&#x2002;" horiz-adv-x="895" />
<glyph unicode="&#x2003;" horiz-adv-x="1790" />
<glyph unicode="&#x2004;" horiz-adv-x="596" />
<glyph unicode="&#x2005;" horiz-adv-x="447" />
<glyph unicode="&#x2006;" horiz-adv-x="298" />
<glyph unicode="&#x2007;" horiz-adv-x="298" />
<glyph unicode="&#x2008;" horiz-adv-x="223" />
<glyph unicode="&#x2009;" horiz-adv-x="358" />
<glyph unicode="&#x200a;" horiz-adv-x="99" />
<glyph unicode="&#x2010;" horiz-adv-x="794" d="M100 481v187h594v-187h-594z" />
<glyph unicode="&#x2011;" horiz-adv-x="794" d="M100 481v187h594v-187h-594z" />
<glyph unicode="&#x2012;" horiz-adv-x="794" d="M100 481v187h594v-187h-594z" />
<glyph unicode="&#x2013;" horiz-adv-x="1081" d="M100 481v187h881v-187h-881z" />
<glyph unicode="&#x2014;" horiz-adv-x="1705" d="M100 481v187h1506v-187h-1506z" />
<glyph unicode="&#x2018;" horiz-adv-x="528" d="M127 946v275l80 213h162l-80 -213h112v-275h-274z" />
<glyph unicode="&#x2019;" horiz-adv-x="528" d="M127 1159v275h274v-275l-79 -213h-162l80 213h-113z" />
<glyph unicode="&#x201a;" horiz-adv-x="528" d="M127 0v274h274v-274l-79 -213h-162l80 213h-113z" />
<glyph unicode="&#x201c;" horiz-adv-x="940" d="M127 946v275l80 213h162l-80 -213h112v-275h-274zM539 946v275l79 213h162l-80 -213h113v-275h-274z" />
<glyph unicode="&#x201d;" horiz-adv-x="940" d="M127 1159v275h274v-275l-79 -213h-162l80 213h-113zM539 1159v275h274v-275l-80 -213h-162l80 213h-112z" />
<glyph unicode="&#x201e;" horiz-adv-x="940" d="M127 0v274h274v-274l-79 -213h-162l80 213h-113zM539 0v274h274v-274l-80 -213h-162l80 213h-112z" />
<glyph unicode="&#x2022;" horiz-adv-x="1638" d="M475 713q0 143 100.5 243.5t243.5 100.5t243.5 -100.5t100.5 -243.5t-100.5 -243.5t-243.5 -100.5t-243.5 100.5t-100.5 243.5z" />
<glyph unicode="&#x2026;" horiz-adv-x="1708" d="M147 0v274h275v-274h-275zM717 0v274h274v-274h-274zM1286 0v274h275v-274h-275z" />
<glyph unicode="&#x202f;" horiz-adv-x="358" />
<glyph unicode="&#x2039;" horiz-adv-x="577" d="M104 463l353 -309v258l-168 147l168 148v258l-353 -310v-192z" />
<glyph unicode="&#x203a;" horiz-adv-x="577" d="M121 154v258l168 147l-168 148v258l352 -310v-192z" />
<glyph unicode="&#x205f;" horiz-adv-x="447" />
<glyph unicode="&#x20ac;" horiz-adv-x="1226" d="M78 784h164v-133h-123l-35 -135h158v-31q0 -230 141 -367.5t373 -137.5q229 0 368 133l-149 161q-85 -88 -219 -88q-57 0 -109 18.5t-95 54t-69 94.5t-26 132v31h428l35 135h-463v133h497l35 136h-532v28q0 73 26 132t69 94.5t95 54t109 18.5q134 0 219 -88l149 162 q-139 133 -368 133q-231 0 -372.5 -137.5t-141.5 -368.5v-28h-129z" />
<glyph unicode="&#x2122;" horiz-adv-x="1540" d="M2 1268v166h637v-166h-231v-666h-175v666h-231zM721 602v832h168l201 -418l200 418h170v-832h-168v508l-135 -285h-133l-135 285v-508h-168z" />
<glyph unicode="&#x25fc;" horiz-adv-x="1054" d="M0 0v1055h1055v-1055h-1055z" />
</font>
</defs>
</svg>
